<?xml version="1.0" encoding="utf-8"?>
<!DOCTYPE svg PUBLIC "-//W3C//DTD SVG 1.0//EN" "http://www.w3.org/TR/2001/REC-SVG-20010904/DTD/svg10.dtd">
<svg version="1.0" xmlns="http://www.w3.org/2000/svg" width="734px" height="489px" viewBox="0 0 734 489" preserveAspectRatio="xMidYMid meet">
 <g fill="#ffffff">
  <path d="M318.95 447.81 c-2.88 -1.06 -5.18 -3.53 -9.29 -10.06 -2.59 -4.06 -41.29 -62.99 -67.17 -102.22 -5.35 -8.06 -17.88 -27.11 -27.82 -42.35 -17.82 -27.11 -34.64 -52.70 -62.52 -95.16 -7.76 -11.70 -17.41 -26.41 -21.47 -32.64 -4.12 -6.23 -9.65 -14.64 -12.35 -18.70 -7.65 -11.65 -8.47 -13.29 -8.82 -17.76 -0.35 -5.12 0.59 -8.47 3.29 -11.41 3.18 -3.53 6.41 -4.76 12.53 -4.82 4.29 0 5.47 0.18 7.94 1.47 3.35 1.71 0.76 -1.94 33.29 47.58 12.47 18.94 31.58 48.05 42.52 64.70 10.94 16.64 22.35 33.99 25.29 38.52 3 4.53 10 15.23 15.64 23.82 23.41 35.52 46.46 70.81 63.99 97.93 6.59 10.17 12.06 18.53 12.12 18.53 0.12 0 3.41 -4.47 7.35 -9.94 7.76 -10.88 10.53 -13.76 13.94 -14.70 10.76 -3 20.17 3.41 20.17 13.76 0 5.06 -0.82 7.29 -4.41 12.35 -5.18 7.18 -14.88 21.06 -21.11 30.17 -7.23 10.59 -8.41 11.47 -15.53 11.70 -3.53 0.12 -5.88 -0.12 -7.59 -0.76z"/>
  <path d="M471.40 447.63 c-2.71 -1.24 -5.35 -3.94 -18 -18.29 -5 -5.65 -15.47 -17.41 -23.17 -26.11 -7.76 -8.70 -15.29 -17.23 -16.76 -18.88 -3.35 -3.88 -33.17 -37.29 -45.58 -51.11 -5.18 -5.82 -10.70 -12.06 -12.35 -13.88 -1.59 -1.82 -7.94 -8.82 -14 -15.53 -6.06 -6.76 -11.65 -13.35 -12.35 -14.70 -1.06 -1.94 -1.29 -3.35 -1.29 -7.70 0 -6.65 0.65 -8.06 7.35 -15.53 4.53 -5.06 38.29 -43.29 62.58 -70.93 5.12 -5.82 23.06 -26.23 39.88 -45.40 16.76 -19.17 31.47 -35.58 32.64 -36.46 l2.12 -1.65 43.93 0 43.88 0 2.47 1.65 c1.59 1 3 2.65 4 4.59 1.41 2.82 1.47 3.53 1.29 9.06 -0.18 5.35 -0.35 6.23 -1.82 8.41 -0.88 1.35 -2.71 3.18 -4.06 4.06 l-2.47 1.65 -36.64 0.29 -36.70 0.29 -3.65 3.82 c-2 2.12 -9.18 10.17 -16 17.88 -6.76 7.76 -18.94 21.53 -27.05 30.64 -8.06 9.12 -19.17 21.70 -24.70 27.94 -8.12 9.29 -40.88 46.23 -49.82 56.23 l-2.18 2.41 7.76 8.82 c4.29 4.82 19.41 21.88 33.70 37.88 28.05 31.47 42.40 47.58 46.99 52.93 13.41 15.35 34.05 38.23 34.94 38.76 0.76 0.35 13.53 0.59 36.99 0.59 l35.82 0 2.59 1.35 c1.71 0.94 3.18 2.35 4.35 4.23 1.53 2.41 1.82 3.53 1.94 7.65 0.29 5.88 -0.53 9.06 -3 11.88 -3.94 4.47 -1.47 4.29 -48.93 4.29 -40.11 0 -42.46 -0.06 -44.70 -1.12z"/>
  <path d="M264.25 245.90 c-3.53 -0.94 -7.12 -3.53 -8.82 -6.41 -1.47 -2.47 -1.65 -3.35 -1.65 -8.06 0 -3.82 0.29 -5.76 1 -7.06 0.53 -0.94 12 -17.76 25.58 -37.35 13.53 -19.59 29.76 -43.11 36.05 -52.29 6.29 -9.23 12.47 -17.76 13.64 -18.94 2.47 -2.53 5.18 -3.47 9.94 -3.47 6.70 0 11.53 2.53 14.23 7.59 1.35 2.41 1.59 3.59 1.59 7.65 0 3.35 -0.29 5.41 -0.94 6.70 -0.94 1.82 -16.06 23.76 -25.82 37.46 -2.65 3.71 -14.53 20.64 -26.47 37.64 -11.88 17 -22.29 31.64 -23.17 32.52 -2.71 2.94 -5 4 -9.29 4.23 -2.18 0.12 -4.82 0.06 -5.88 -0.24z"/>
 </g>
 <g fill="none">
  <path d="M0 244.67 l0 -244.67 367 0 367 0 0 244.67 0 244.67 -367 0 -367 0 0 -244.67z m332.30 200.32 c1.47 -0.94 4.23 -4.35 8 -9.88 3.18 -4.65 8.94 -12.88 12.82 -18.41 11.53 -16.35 12 -17.11 12.47 -20.06 0.71 -5 -1.71 -9.88 -6.35 -12.76 -5 -3.12 -10.53 -2.65 -14.70 1.24 -1.24 1.18 -5.53 6.70 -9.53 12.17 -6.41 8.94 -7.35 10 -8.88 10 -1.76 0 -0.59 1.71 -29.82 -43.40 -5.18 -7.94 -35.64 -54.52 -48.05 -73.34 -5.65 -8.59 -12.65 -19.29 -15.64 -23.82 -2.94 -4.53 -14.35 -21.88 -25.29 -38.52 -10.94 -16.64 -30.05 -45.76 -42.52 -64.70 -32.35 -49.23 -30 -45.88 -33.17 -47.52 -3.41 -1.76 -8.70 -1.88 -12.35 -0.24 -3.29 1.41 -6.70 5.29 -7.53 8.47 -1.35 4.94 -0.35 7.53 8.35 20.70 2.71 4.06 8.23 12.47 12.35 18.70 4.06 6.23 13.70 20.94 21.47 32.64 27.88 42.46 44.70 68.05 62.52 95.16 9.94 15.23 22.47 34.29 27.82 42.35 25.88 39.23 64.58 98.16 67.17 102.22 4.12 6.53 6.41 9 9.29 10.06 3.59 1.35 8.70 0.88 11.59 -1.06z m226.73 0.88 c1.29 -0.59 3.23 -2 4.23 -3.18 5.23 -6 3.53 -16.64 -3.29 -20.23 l-2.59 -1.35 -35.82 0 c-23.11 0 -36.23 -0.24 -36.94 -0.59 -0.65 -0.35 -7.12 -7.41 -14.47 -15.76 -7.35 -8.29 -14.76 -16.59 -16.35 -18.35 -1.65 -1.76 -7.76 -8.65 -13.59 -15.23 -5.82 -6.65 -21.70 -24.47 -35.23 -39.70 -46.17 -51.82 -44.46 -49.87 -44.46 -51.29 0 -0.88 -0.18 -0.65 23.82 -27.64 10.35 -11.65 23.35 -26.29 28.82 -32.58 5.53 -6.23 16.64 -18.82 24.70 -27.94 8.12 -9.12 20.29 -22.88 27.05 -30.64 6.82 -7.70 14 -15.76 16 -17.88 l3.65 -3.82 36.70 -0.29 36.64 -0.29 2.47 -1.65 c3.94 -2.59 5.65 -5.70 5.88 -10.70 0.24 -3.65 0 -4.65 -1.29 -7.23 -1 -2 -2.41 -3.65 -4 -4.65 l-2.47 -1.65 -42.11 0 -42.17 0 -2.12 1.65 c-1.18 0.88 -15.88 17.29 -32.64 36.46 -16.82 19.17 -34.76 39.58 -39.88 45.40 -24.29 27.64 -58.05 65.87 -62.58 70.93 -2.82 3.12 -5.59 6.70 -6.18 7.94 -1.59 3.23 -1.53 8.65 0.18 11.76 0.71 1.35 6.23 7.94 12.29 14.70 6.06 6.70 12.41 13.70 14 15.53 1.65 1.82 7.18 8.06 12.35 13.88 12.41 13.82 42.23 47.23 45.58 51.11 1.47 1.65 9 10.17 16.76 18.88 7.70 8.70 18.17 20.47 23.17 26.11 5 5.65 10.59 11.82 12.35 13.76 5.76 6.06 2.06 5.65 48.58 5.65 37.99 0 40.76 -0.12 42.93 -1.12z m-284.66 -202.97 c1 -0.59 2.47 -1.82 3.29 -2.76 0.88 -0.88 11.29 -15.53 23.17 -32.52 11.94 -17 23.82 -33.94 26.47 -37.64 9.76 -13.70 24.88 -35.64 25.82 -37.46 0.53 -1.06 0.94 -3.23 0.94 -5 0 -9.82 -12.12 -16.70 -20.41 -11.59 -2.18 1.35 -2.88 2.35 -26.35 36.41 -9.06 13.12 -23.94 34.64 -33.11 47.93 -9.18 13.23 -17.11 24.88 -17.64 25.88 -0.59 1.06 -0.94 3.18 -1 5.29 0 2.82 0.35 4.06 1.65 6.29 3.47 5.94 11.82 8.41 17.17 5.18z"/>
 </g>
</svg>
